<?xml version="1.0" encoding="UTF-8" standalone="no"?>
<!-- Created with Inkscape (http://www.inkscape.org/) -->

<svg
   version="1.1"
   id="svg2"
   width="507.55649"
   height="112.34555"
   viewBox="0 0 507.55649 112.34555"
   sodipodi:docname="logo.svg"
   inkscape:version="1.2.2 (b0a8486541, 2022-12-01)"
   xmlns:inkscape="http://www.inkscape.org/namespaces/inkscape"
   xmlns:sodipodi="http://sodipodi.sourceforge.net/DTD/sodipodi-0.dtd"
   xmlns="http://www.w3.org/2000/svg"
   xmlns:svg="http://www.w3.org/2000/svg">
  <defs
     id="defs6">
    <clipPath
       clipPathUnits="userSpaceOnUse"
       id="clipPath44">
      <path
         d="M 0,0 H 1920 V 1080 H 0 Z"
         id="path42" />
    </clipPath>
    <clipPath
       clipPathUnits="userSpaceOnUse"
       id="clipPath72">
      <path
         d="M 0,0 H 1920 V 1080 H 0 Z"
         id="path70" />
    </clipPath>
    <clipPath
       clipPathUnits="userSpaceOnUse"
       id="clipPath88">
      <path
         d="M 0,0 H 1920 V 1080 H 0 Z"
         id="path86" />
    </clipPath>
  </defs>
  <sodipodi:namedview
     id="namedview4"
     pagecolor="#ffffff"
     bordercolor="#000000"
     borderopacity="0.25"
     inkscape:showpageshadow="2"
     inkscape:pageopacity="0.0"
     inkscape:pagecheckerboard="0"
     inkscape:deskcolor="#d1d1d1"
     showgrid="false"
     inkscape:zoom="0.77685188"
     inkscape:cx="252.30035"
     inkscape:cy="455.0417"
     inkscape:window-width="1920"
     inkscape:window-height="1020"
     inkscape:window-x="0"
     inkscape:window-y="28"
     inkscape:window-maximized="1"
     inkscape:current-layer="g8" />
  <g
     id="g8"
     inkscape:groupmode="layer"
     inkscape:label="Storyboard_Guia_02_03"
     transform="matrix(1.3333333,0,0,-1.3333333,-707.72794,1352.1014)">
    <g
       id="g336">
      <text
         xml:space="preserve"
         transform="scale(1,-1)"
         style="font-variant:normal;font-weight:bold;font-stretch:normal;font-size:69.5849px;font-family:'Bebas Neue Bold';-inkscape-font-specification:BebasNeueBold;writing-mode:lr-tb;fill:#ffffff;fill-opacity:1;fill-rule:nonzero;stroke:none;stroke-width:0.750094"
         id="text60"
         x="528.01257"
         y="-964.78662"><tspan
           x="528.01257 553.68933 582.01038 608.03516 634.05988"
           y="-964.78662"
           sodipodi:role="line"
           id="tspan58"
           style="stroke-width:0.750094">PASSA</tspan></text>
      <text
         xml:space="preserve"
         transform="scale(1,-1)"
         style="font-variant:normal;font-weight:bold;font-stretch:normal;font-size:69.5849px;font-family:'Bebas Neue Bold';-inkscape-font-specification:BebasNeueBold;writing-mode:lr-tb;fill:#ffffff;fill-opacity:1;fill-rule:nonzero;stroke:none;stroke-width:0.750094"
         id="text64"
         x="777.86041"
         y="-964.78662"><tspan
           x="777.86041 803.53723 831.85828 857.883 883.90771"
           y="-964.78662"
           sodipodi:role="line"
           id="tspan62"
           style="stroke-width:0.750094">PASSA</tspan></text>
      <g
         id="g66"
         transform="matrix(0.75009382,0,0,0.75009382,0.02998752,269.88179)">
        <g
           id="g68"
           clip-path="url(#clipPath72)">
          <g
             id="g74"
             transform="translate(1000.7448,926.4239)">
            <path
               d="M 0,0 C -0.496,1.236 -0.804,2.458 -0.928,3.664 -1.052,4.87 -1.113,6.276 -1.113,7.885 v 10.019 c 0,3.401 -0.48,6.293 -1.438,8.674 -0.96,2.38 -2.737,4.096 -5.334,5.149 4.453,2.101 6.679,6.493 6.679,13.173 v 5.102 c 0,5.009 -1.191,8.751 -3.572,11.225 -2.381,2.473 -6.231,3.711 -11.549,3.711 h -15.4 V 0 h 10.205 v 26.439 h 3.525 c 2.35,0 4.05,-0.619 5.102,-1.855 1.051,-1.238 1.577,-3.372 1.577,-6.401 V 7.978 c 0,-1.299 0.015,-2.382 0.047,-3.247 0.03,-0.867 0.092,-1.577 0.185,-2.134 0.093,-0.556 0.2,-1.02 0.325,-1.391 0.123,-0.371 0.246,-0.774 0.371,-1.206 z m -16.606,55.661 c 1.794,0 3.108,-0.526 3.943,-1.577 0.835,-1.053 1.253,-2.753 1.253,-5.102 v -6.401 c 0,-2.598 -0.543,-4.392 -1.624,-5.381 -1.083,-0.99 -2.583,-1.484 -4.499,-1.484 h -3.989 v 19.945 z m 32.376,0 h 17.626 v 9.277 H 5.565 V 0 H 33.396 V 9.277 H 15.77 v 19.017 h 14.008 v 9.277 H 15.77 Z"
               style="fill:none;stroke:#ffffff;stroke-width:1.546;stroke-linecap:butt;stroke-linejoin:miter;stroke-miterlimit:4;stroke-dasharray:none;stroke-opacity:1"
               id="path76" />
          </g>
        </g>
      </g>
      <g
         id="g78"
         transform="matrix(0.75009382,0,0,0.75009382,718.01919,964.20674)">
        <path
           d="M 0,0 V 27.831 H -9.277 V 10.204 h -46.384 v 17.627 h -9.277 V 0 Z M -9.277,38.653 H 0 V 66.484 H -64.938 V 38.653 h 9.277 v 17.626 h 46.384 z"
           style="fill:#17f983;fill-opacity:1;fill-rule:nonzero;stroke:none"
           id="path80" />
      </g>
      <g
         id="g82"
         transform="matrix(0.75009382,0,0,0.75009382,0.02998752,269.88179)">
        <g
           id="g84"
           clip-path="url(#clipPath88)">
          <g
             id="g90"
             transform="translate(912.4188,968.078)">
            <path
               d="m 0,0 c 0,1.228 0.25,2.092 0.751,2.593 0.501,0.501 1.171,0.752 2.012,0.752 0.84,0 1.51,-0.251 2.011,-0.752 C 5.275,2.092 5.526,1.228 5.526,0 v -18.322 c 0,-1.229 -0.251,-2.093 -0.752,-2.593 -0.501,-0.502 -1.171,-0.752 -2.011,-0.752 -0.841,0 -1.511,0.25 -2.012,0.752 C 0.25,-20.415 0,-19.551 0,-18.322 Z m -5.332,-17.983 c 0,-2.747 0.695,-4.855 2.084,-6.325 1.389,-1.471 3.393,-2.206 6.011,-2.206 2.617,0 4.621,0.735 6.01,2.206 1.389,1.47 2.085,3.578 2.085,6.325 v 17.644 c 0,2.746 -0.696,4.854 -2.085,6.325 C 7.384,7.456 5.38,8.192 2.763,8.192 0.145,8.192 -1.859,7.456 -3.248,5.986 -4.637,4.515 -5.332,2.407 -5.332,-0.339 Z M 14.057,7.804 v -25.835 c 0,-2.747 0.67,-4.856 2.011,-6.326 1.341,-1.471 3.32,-2.205 5.938,-2.205 2.617,0 4.596,0.734 5.938,2.205 1.34,1.47 2.011,3.579 2.011,6.326 V 7.804 h -5.041 v -26.175 c 0,-1.228 -0.251,-2.084 -0.751,-2.569 -0.502,-0.484 -1.172,-0.727 -2.012,-0.727 -0.84,0 -1.511,0.243 -2.011,0.727 -0.502,0.485 -0.752,1.341 -0.752,2.569 V 7.804 Z"
               style="fill:#ffffff;fill-opacity:1;fill-rule:nonzero;stroke:none"
               id="path92" />
          </g>
          <g
             id="g94"
             transform="translate(1143.2092,885.3024)">
            <path
               d="M 0,0 V 3.369 H 3.503 L -0.506,28.425 H -8.21 l -2.122,-13.263 h 4.613 l 1.098,7.33 2.536,-16.939 h -5.072 l 0.934,6.24 h -4.648 l -2.698,-16.862 h 4.833 l 0.909,6.077 h 6.46 l 0.909,-6.077 H 4.853 L 4.042,0 Z m -20.411,-5.069 h 5.359 c -0.255,0.638 -0.415,1.268 -0.478,1.89 -0.064,0.622 -0.096,1.347 -0.096,2.177 v 5.168 c 0,1.754 -0.247,3.245 -0.741,4.474 -0.495,1.227 -1.412,2.112 -2.752,2.655 2.297,1.084 3.445,3.35 3.445,6.795 v 2.631 c 0,2.584 -0.614,4.514 -1.842,5.79 -1.228,1.275 -3.214,1.914 -5.957,1.914 h -7.943 V -5.069 h 5.264 V 8.568 h 1.818 c 1.212,0 2.089,-0.319 2.632,-0.957 0.542,-0.639 0.813,-1.739 0.813,-3.302 v -5.263 c 0,-0.67 0.008,-1.228 0.024,-1.674 0.016,-0.448 0.048,-0.814 0.096,-1.101 0.047,-0.287 0.103,-0.526 0.167,-0.718 0.064,-0.191 0.127,-0.399 0.191,-0.622 m -0.526,21.962 c 0,-1.339 -0.279,-2.265 -0.837,-2.775 -0.559,-0.51 -1.332,-0.765 -2.321,-0.765 h -2.057 V 23.64 h 2.536 c 0.924,0 1.603,-0.271 2.033,-0.813 0.431,-0.543 0.646,-1.42 0.646,-2.632 z M -36.87,-3.274 c 1.371,1.451 2.057,3.532 2.057,6.244 v 17.416 c 0,2.711 -0.686,4.793 -2.057,6.244 -1.372,1.452 -3.349,2.177 -5.933,2.177 -2.584,0 -4.562,-0.725 -5.933,-2.177 -1.372,-1.451 -2.058,-3.533 -2.058,-6.244 V 3.369 h 2.781 V 0 h -2.44 c 0.33,-1.314 0.899,-2.409 1.717,-3.274 1.371,-1.452 3.349,-2.178 5.933,-2.178 2.584,0 4.561,0.726 5.933,2.178 m -3.206,5.909 c 0,-1.213 -0.247,-2.066 -0.742,-2.56 -0.494,-0.495 -1.156,-0.742 -1.985,-0.742 -0.83,0 -1.492,0.247 -1.986,0.742 -0.495,0.494 -0.742,1.347 -0.742,2.56 v 18.086 c 0,1.212 0.247,2.065 0.742,2.56 0.494,0.494 1.156,0.742 1.986,0.742 0.829,0 1.491,-0.248 1.985,-0.742 0.495,-0.495 0.742,-1.348 0.742,-2.56 z m -18.899,0.734 h 5.263 v 16.778 c 0,2.711 -0.646,4.768 -1.938,6.172 -1.292,1.404 -3.262,2.106 -5.909,2.106 h -8.326 v -4.839 h 3.761 v -3.37 h -3.761 V -5.069 h 8.326 c 2.647,0 4.617,0.702 5.909,2.106 0.72,0.782 1.232,1.775 1.551,2.963 h -6.23 c -0.378,-0.182 -0.815,-0.284 -1.326,-0.284 h -2.966 V 23.64 h 2.966 c 0.829,0 1.484,-0.239 1.962,-0.718 0.479,-0.478 0.718,-1.324 0.718,-2.536 z m -28.517,-8.438 h 14.354 v 4.785 h -9.091 v 9.809 h 7.225 v 4.785 h -7.225 v 9.33 h 9.091 v 4.785 h -14.354 z m -5.287,2.106 c 1.292,1.403 1.938,3.46 1.938,6.172 v 16.938 c 0,2.711 -0.646,4.768 -1.938,6.172 -1.292,1.404 -3.262,2.106 -5.909,2.106 h -8.326 V 15.162 h 5.264 v 8.478 h 2.966 c 0.829,0 1.483,-0.239 1.962,-0.718 0.478,-0.478 0.718,-1.324 0.718,-2.536 V 2.97 c 0,-1.213 -0.24,-2.058 -0.718,-2.536 -0.479,-0.479 -1.133,-0.718 -1.962,-0.718 h -2.966 v 12.077 h -5.264 V -5.069 h 8.326 c 2.647,0 4.617,0.702 5.909,2.106 M -116.2,-5.069 h 5.407 v 16.862 h -2.081 v 3.369 h 2.081 v 13.263 h -4.689 V 8.376 l -5.407,20.049 h -6.603 V -5.069 h 4.737 V 19.19 Z m -28.852,0 h 14.354 v 4.785 h -9.091 v 9.809 h 7.225 v 4.785 h -7.225 v 5.906 h -5.263 z m 5.263,28.709 h 9.091 v 4.785 h -14.354 v -4.839 h 5.263 z m -17.607,0 h 9.091 v 4.785 H -162.66 V 3.369 h 5.264 v 6.156 h 7.225 v 4.785 h -7.225 z m -13.493,-28.709 h 5.359 c -0.256,0.638 -0.415,1.268 -0.479,1.89 -0.064,0.622 -0.095,1.347 -0.095,2.177 V 0 h -3.207 v 3.369 h 3.207 v 0.797 c 0,1.754 -0.248,3.245 -0.742,4.474 -0.495,1.227 -1.411,2.112 -2.751,2.655 2.296,1.084 3.445,3.35 3.445,6.795 v 2.631 c 0,2.584 -0.615,4.514 -1.842,5.79 -1.229,1.275 -3.214,1.914 -5.957,1.914 h -7.943 V -5.069 h 5.263 V 8.568 h 1.818 c 1.212,0 2.089,-0.319 2.632,-0.957 0.542,-0.639 0.813,-1.739 0.813,-3.302 v -5.263 c 0,-0.67 0.008,-1.228 0.024,-1.674 0.016,-0.448 0.048,-0.814 0.096,-1.101 0.048,-0.287 0.103,-0.526 0.168,-0.718 0.063,-0.191 0.127,-0.399 0.191,-0.622 m -0.526,21.962 c 0,-1.339 -0.28,-2.265 -0.838,-2.775 -0.558,-0.51 -1.332,-0.765 -2.32,-0.765 h -2.058 V 23.64 h 2.536 c 0.925,0 1.603,-0.271 2.034,-0.813 0.43,-0.543 0.646,-1.42 0.646,-2.632 z m -15.096,-7.272 c 1.292,1.403 1.938,3.46 1.938,6.172 v 4.354 c 0,2.711 -0.646,4.768 -1.938,6.172 -1.292,1.404 -3.262,2.106 -5.909,2.106 h -7.751 V 15.162 h 3.063 v -3.369 h -3.063 V -5.069 h 5.263 V 7.515 h 2.488 c 2.647,0 4.617,0.701 5.909,2.106 m -3.325,5.837 c 0,-1.213 -0.224,-2.042 -0.67,-2.488 -0.447,-0.447 -1.085,-0.67 -1.914,-0.67 h -2.488 v 11.34 h 2.488 c 0.829,0 1.467,-0.224 1.914,-0.67 0.446,-0.447 0.67,-1.276 0.67,-2.488 z m -19.139,-20.527 h 4.976 v 16.862 h -4.976 z m 0,20.231 h 4.977 v 13.263 h -7.321 l -3.589,-23.781 -3.875,23.781 h -7.321 v -4.839 h 4.989 v -3.37 h -4.989 V -5.069 h 4.593 v 23.685 l 3.924,-23.685 h 4.976 l 3.636,24.02 z m -34.689,-20.231 h 14.354 v 4.785 h -9.091 v 9.809 h 7.225 v 4.785 h -7.225 v 9.33 h 9.091 v 4.785 h -14.354 z m -25.024,0 h 14.354 v 4.785 h -9.091 v 9.809 h 7.225 v 4.785 h -7.225 v 9.33 h 9.091 v 4.785 h -14.354 V 3.369 h 2.508 V 0 h -2.508 z m -8.612,8.438 h 5.263 v 16.778 c 0,2.711 -0.646,4.768 -1.938,6.172 -1.292,1.404 -3.262,2.106 -5.909,2.106 h -8.326 V -5.069 h 8.326 c 2.647,0 4.617,0.702 5.909,2.106 0.72,0.782 1.232,1.775 1.551,2.963 h -6.23 c -0.378,-0.182 -0.815,-0.284 -1.326,-0.284 h -2.966 V 23.64 h 2.966 c 0.829,0 1.484,-0.239 1.962,-0.718 0.479,-0.478 0.718,-1.324 0.718,-2.536 z m -16.484,-6.691 c 1.324,1.451 1.986,3.532 1.986,6.244 v 25.503 h -4.976 V 15.162 h 3.218 v -3.369 h -3.218 V 2.587 c 0,-1.213 -0.248,-2.058 -0.742,-2.536 -0.495,-0.478 -1.156,-0.718 -1.985,-0.718 -0.83,0 -1.492,0.24 -1.986,0.718 -0.495,0.478 -0.742,1.323 -0.742,2.536 v 9.206 h -3.541 v 3.369 h 3.541 v 13.263 h -5.263 v -4.839 h 2.564 v -3.37 h -2.564 V 2.922 c 0,-2.712 0.662,-4.793 1.986,-6.244 1.323,-1.452 3.277,-2.177 5.861,-2.177 2.584,0 4.537,0.725 5.861,2.177 m -21.267,26.962 h 5.502 v 4.785 h -16.268 V 23.64 h 5.502 V -5.069 h 5.264 v 25.285 3.37 z m -18.325,-28.709 h 5.263 v 33.494 h -5.263 V 6.739 h 2.757 v -3.37 h -2.757 z m -7.799,28.709 h 5.503 v 4.785 h -16.269 V 23.64 h 5.503 V -5.069 h 5.263 v 8.438 h -2.921 v 3.37 h 2.921 z m -16.986,-28.709 h 5.311 l -4.045,25.285 h -3.627 v 3.37 h 3.088 l -0.775,4.839 h -7.703 l -5.359,-33.494 h 4.832 l 0.91,6.077 h 6.459 z m -1.627,10.622 h -5.072 l 2.536,16.939 z M -157.396,0 h -5.264 v -5.069 h 14.355 v 4.785 h -9.091 z"
               style="fill:#17f983;fill-opacity:1;fill-rule:nonzero;stroke:none"
               id="path96" />
          </g>
        </g>
      </g>
    </g>
  </g>
</svg>
